<?xml version="1.0" encoding="UTF-8"?>
<svg id="pwr3" xmlns="http://www.w3.org/2000/svg" viewBox="0 0 2391.97 378.17">
  <defs>
    <style>
      .cls-1 {
        fill: #f90;
      }

      .cls-2 {
        fill: #fff;
      }
    </style>
  </defs>
  <path class="cls-2" d="M860.79,154.52c0-80.85-65.54-146.4-146.4-146.4s-146.4,65.54-146.4,146.4v215.53h55.92v-100.43c24.91,19.61,56.33,31.3,90.48,31.3,80.85,0,146.4-65.54,146.4-146.4ZM804.88,154.52c0,49.97-40.51,90.48-90.48,90.48s-90.48-40.51-90.48-90.48,40.51-90.48,90.48-90.48,90.48,40.51,90.48,90.48Z"/>
  <polygon class="cls-2" points="1275.15 8.4 1218.91 8.54 1152.69 214.21 1086.48 8.61 1086.55 8.4 1058.38 8.47 1030.22 8.4 1030.29 8.61 964.08 214.21 897.85 8.54 841.61 8.4 935.43 299.74 936.54 299.74 936.5 299.88 964.08 299.81 991.67 299.88 991.62 299.74 992.74 299.74 1058.38 95.87 1124.03 299.74 1125.14 299.74 1125.1 299.88 1152.69 299.81 1180.27 299.88 1180.23 299.74 1181.34 299.74 1275.15 8.4"/>
  <path class="cls-2" d="M1323.88,154.8c0-49.97,40.51-90.48,90.48-90.48V8.4c-80.85,0-146.4,65.54-146.4,146.4v145.08h55.92v-145.08Z"/>
  <circle class="cls-1" cx="1504.94" cy="209.3" r="90.58"/>
</svg>